<svg xmlns="http://www.w3.org/2000/svg" aria-hidden="true" overflow="hidden" style="width:0;height:0;position:absolute"><defs><symbol id="arrow-right" viewBox="0 0 32 32"><path d="m19.414 27.414 10-10a2 2 0 0 0 0-2.828l-10-10a2 2 0 1 0-2.828 2.828L23.172 14H4a2 2 0 1 0 0 4h19.172l-6.586 6.586c-.39.39-.586.902-.586 1.414s.195 1.024.586 1.414a2 2 0 0 0 2.828 0z"/></symbol><symbol id="btn-arrow-right" viewBox="0 0 16 32"><path d="M.612.704C.22 1.155 0 1.767 0 2.405s.22 1.25.612 1.701l10.344 11.908L.612 27.922c-.381.454-.591 1.061-.587 1.692s.225 1.234.612 1.68c.387.446.912.699 1.46.704s1.076-.237 1.47-.675l11.821-13.609c.392-.451.612-1.063.612-1.701s-.22-1.25-.612-1.701L3.567.703C3.175.252 2.644-.001 2.09-.001S1.004.252.613.703z"/></symbol></defs></svg>